# File created by Blade
# Date/Time:  Wed Apr 08 14:54:55 2015
#---------------------------------------------------------
:version 1.10
:name HOM
:units
  mass 1.0
  length 1.000000
  angle deg
:documentation
     Acclaim Skeleton File
:root
   axis xyz
   order TX TY TZ RX RY RZ
   position 0.000000 0.000000 0.000000
   orientation 0 0 0
:bonedata
   begin
      id 1
      name Spine_dum
      direction 0.000000 1.000000 0.000000
      length 4.885285
      axis 0.0 0.0 0.0 xyz
   end
   begin
      id 2
      name LeftUpLeg_dum
      direction 1.000000 0.000000 0.000000
      length 2.672193
      axis 0.0 0.0 0.0 xyz
   end
   begin
      id 3
      name RightUpLeg_dum
      direction -1.000000 0.000000 0.000000
      length 2.672193
      axis 0.0 0.0 0.0 xyz
   end
   begin
      id 4
      name Spine
      direction 0.000000 1.000000 0.000000
      length 0.000000
      axis 0.0 0.0 0.0 xyz
      dof rx ry rz
   end
   begin
      id 5
      name Spine_dum1
      direction 0.000000 1.000000 0.000000
      length 16.494159
      axis 0.0 0.0 0.0 xyz
   end
   begin
      id 6
      name Spine_dum2
      direction 0.000000 1.000000 0.000000
      length 10.663448
      axis 0.0 0.0 0.0 xyz
   end
   begin
      id 7
      name Spine_dum3
      direction 0.000000 1.000000 0.000000
      length 10.663448
      axis 0.0 0.0 0.0 xyz
   end
   begin
      id 8
      name Head
      direction 0.000000 1.000000 0.000000
      length 4.527550
      axis 0.0 0.0 0.0 xyz
      dof rx ry rz
   end
   begin
      id 9
      name LeftShoulder
      direction 1.000000 0.000000 0.000000
      length 7.531907
      axis 0.0 0.0 -90.0 xyz
      dof rx ry rz
   end
   begin
      id 10
      name LeftArm
      direction 1.000000 0.000000 0.000000
      length 10.229199
      axis 0.0 0.0 -90.0 xyz
      dof rx ry rz
   end
   begin
      id 11
      name LeftForeArm
      direction 1.000000 0.000000 0.000000
      length 8.673495
      axis 0.0 0.0 -90.0 xyz
      dof ry rz rx
   end
   begin
      id 12
      name LeftHand
      direction 0.000000 0.000000 0.000000
      length 0.000000
      axis 0.0 0.0 -90.0 xyz
      dof rx ry rz
   end
   begin
      id 13
      name LeftHand_dum1
      direction 0.000000 0.000000 0.000000
      length 0.000000
      axis 0.0 0.0 -90.0 xyz
   end
   begin
      id 14
      name LeftHand_dum2
      direction 1.000000 0.000000 0.000000
      length 3.937000
      axis 0.0 0.0 -90.0 xyz
   end
   begin
      id 15
      name LeftHandThumb1
      direction 0.000000 0.000000 1.000000
      length 3.937000
      axis 0.0 0.0 -90.0 xyz
      dof rx rz ry
   end
   begin
      id 16
      name RightShoulder
      direction -1.000000 0.000000 0.000000
      length 7.531907
      axis 0.0 0.0 90.0 xyz
      dof rx ry rz
   end
   begin
      id 17
      name RightArm
      direction -1.000000 0.000000 0.000000
      length 10.229199
      axis 0.0 0.0 90.0 xyz
      dof rx ry rz
   end
   begin
      id 18
      name RightForeArm
      direction -1.000000 0.000000 0.000000
      length 8.673495
      axis 0.0 0.0 90.0 xyz
      dof ry rz rx
   end
   begin
      id 19
      name RightHand
      direction 0.000000 0.000000 0.000000
      length 0.000000
      axis 0.0 0.0 90.0 xyz
      dof rx ry rz
   end
   begin
      id 20
      name RightHand_dum1
      direction 0.000000 0.000000 0.000000
      length 0.000000
      axis 0.0 0.0 90.0 xyz
   end
   begin
      id 21
      name RightHand_dum2
      direction -1.000000 0.000000 0.000000
      length 3.937000
      axis 0.0 0.0 90.0 xyz
   end
   begin
      id 22
      name RightHandThumb1
      direction 0.000000 0.000000 1.000000
      length 3.937000
      axis 0.0 0.0 90.0 xyz
      dof rx rz ry
   end
   begin
      id 23
      name LeftUpLeg
      direction 0.000000 -1.000000 0.000000
      length 16.263388
      axis 0.0 0.0 0.0 xyz
      dof rx ry rz
   end
   begin
      id 24
      name LeftLeg
      direction 0.000000 -1.000000 0.000000
      length 14.328163
      axis 0.0 0.0 0.0 xyz
      dof rx ry rz
   end
   begin
      id 25
      name LeftFoot
      direction 0.000000 -0.258819 0.965926
      length 5.031290
      axis 15.0 0.0 0.0 xyz
      dof rx ry rz
   end
   begin
      id 26
      name LeftToeBase
      direction 0.000000 0.000000 1.000000
      length 2.952750
      axis 0.0 0.0 0.0 xyz
      dof rx ry rz
   end
   begin
      id 27
      name RightUpLeg
      direction 0.000000 -1.000000 0.000000
      length 16.263388
      axis 0.0 0.0 0.0 xyz
      dof rx ry rz
   end
   begin
      id 28
      name RightLeg
      direction 0.000000 -1.000000 0.000000
      length 14.328163
      axis 0.0 0.0 0.0 xyz
      dof rx ry rz
   end
   begin
      id 29
      name RightFoot
      direction 0.000000 -0.258819 0.965926
      length 5.031290
      axis 15.0 0.0 0.0 xyz
      dof rx ry rz
   end
   begin
      id 30
      name RightToeBase
      direction 0.000000 0.000000 1.000000
      length 2.952750
      axis 0.0 0.0 0.0 xyz
      dof rx ry rz
   end
:hierarchy
   begin
      root Spine_dum LeftUpLeg_dum RightUpLeg_dum
      Spine_dum Spine
      LeftUpLeg_dum LeftUpLeg
      RightUpLeg_dum RightUpLeg
      Spine Spine_dum1 Spine_dum2 Spine_dum3
      Spine_dum1 Head
      Spine_dum2 LeftShoulder
      Spine_dum3 RightShoulder
      LeftShoulder LeftArm
      LeftArm LeftForeArm
      LeftForeArm LeftHand
      LeftHand LeftHand_dum1 LeftHand_dum2
      LeftHand_dum1 LeftHandThumb1
      RightShoulder RightArm
      RightArm RightForeArm
      RightForeArm RightHand
      RightHand RightHand_dum1 RightHand_dum2
      RightHand_dum1 RightHandThumb1
      LeftUpLeg LeftLeg
      LeftLeg LeftFoot
      LeftFoot LeftToeBase
      RightUpLeg RightLeg
      RightLeg RightFoot
      RightFoot RightToeBase
   end

# File created by Blade
# Date/Time:  Wed Apr 08 14:55:03 2015
# Frame Rate: 120.000 fps
#------------------------------------------------------
:FULLY-SPECIFIED
:DEGREES
86
root 3.502145 32.683499 -12.292079 13.282118 0.188354 -0.780931
Spine -18.284289 -5.971201 0.470809
Head 17.478646 -4.220078 -0.652455
LeftShoulder -18.298341 37.755376 23.060473
LeftArm 56.604514 -55.603989 -58.452414
LeftForeArm 8.717654 -0.000000 0.042688
LeftHand 4.725319 -0.000000 9.110263
LeftHandThumb1 -26.253704 0.000000 33.147579
RightShoulder -6.400099 3.770730 -30.207652
RightArm 11.180780 14.959306 40.448786
RightForeArm -11.026366 -0.000000 4.622920
RightHand 2.702082 0.000000 -3.155190
RightHandThumb1 -24.326973 -0.000000 -32.862282
LeftUpLeg -4.132568 -5.818975 1.153357
LeftLeg -5.818617 -0.000000 0.000000
LeftFoot -5.365935 8.470093 -17.136412
LeftToeBase -5.460676 -0.000000 0.000000
RightUpLeg -3.848310 -0.265043 1.196773
RightLeg -4.478158 -0.000000 0.000000
RightFoot -7.882259 -9.908863 10.875332
RightToeBase 0.449951 -0.000000 -0.000000
87
root 3.515828 32.685720 -12.283179 13.293741 0.204450 -0.772815
Spine -18.309593 -5.945861 0.474855
Head 17.601611 -4.218114 -0.704699
LeftShoulder -18.344710 38.004497 22.922626
LeftArm 56.692264 -55.264128 -58.944434
LeftForeArm 8.505776 -0.000000 0.737995
LeftHand 4.819022 -0.000000 9.853543
LeftHandThumb1 -26.253704 0.000000 33.147579
RightShoulder -6.409663 3.646684 -30.132604
RightArm 11.040290 14.938693 40.668096
RightForeArm -11.115648 -0.000000 5.064254
RightHand 2.850678 -0.000000 -3.703529
RightHandThumb1 -24.326973 -0.000000 -32.862282
LeftUpLeg -4.136007 -5.852080 1.136752
LeftLeg -5.813896 -0.000000 0.000000
LeftFoot -5.323885 8.430206 -17.175881
LeftToeBase -5.497616 -0.000000 0.000000
RightUpLeg -3.861998 -0.298297 1.165486
RightLeg -4.447749 -0.000000 0.000000
RightFoot -7.846586 -9.883404 10.892233
RightToeBase 0.338258 -0.000000 -0.000000
88
root 3.530635 32.689430 -12.276759 13.329298 0.195314 -0.776253
Spine -18.353383 -5.909834 0.501788
Head 17.701993 -4.189607 -0.764161
LeftShoulder -18.419598 38.296815 22.743023
LeftArm 57.040201 -55.010600 -59.769071
LeftForeArm 8.440972 -0.000000 1.463644
LeftHand 4.910275 0.000000 10.302194
LeftHandThumb1 -26.253704 0.000000 33.147579
RightShoulder -6.398936 3.528502 -30.035866
RightArm 10.888515 14.951667 40.895910
RightForeArm -11.056806 -0.000000 5.530685
RightHand 3.431336 -0.000000 -4.508423
RightHandThumb1 -24.326973 -0.000000 -32.862282
LeftUpLeg -4.171862 -5.833887 1.118841
LeftLeg -5.799412 -0.000000 0.000000
LeftFoot -5.262776 8.412884 -17.162451
LeftToeBase -5.571704 -0.000000 0.000000
RightUpLeg -3.915049 -0.307561 1.138982
RightLeg -4.399614 -0.000000 0.000000
RightFoot -7.799428 -9.863083 10.918625
RightToeBase 0.267025 -0.000000 -0.000000
89
root 3.545527 32.693794 -12.270934 13.365341 0.186368 -0.791700
Spine -18.384998 -5.866053 0.552448
Head 17.768976 -4.150305 -0.858670
LeftShoulder -18.480780 38.586362 22.494954
LeftArm 57.452934 -54.861084 -60.693759
LeftForeArm 8.632635 0.000000 2.221130
LeftHand 5.280612 -0.000000 10.959597
LeftHandThumb1 -26.253704 0.000000 33.147579
RightShoulder -6.403479 3.403050 -29.942123
RightArm 10.733409 15.087458 41.189435
RightForeArm -11.071274 -0.000000 6.017009
RightHand 3.883067 -0.000000 -5.244467
RightHandThumb1 -24.326973 -0.000000 -32.862282
LeftUpLeg -4.200926 -5.833572 1.108868
LeftLeg -5.796736 -0.000000 0.000000
LeftFoot -5.201325 8.435737 -17.141126
LeftToeBase -5.654671 -0.000000 0.000000
RightUpLeg -3.984249 -0.328031 1.125592
RightLeg -4.322580 -0.000000 0.000000
RightFoot -7.761527 -9.826218 10.945574
RightToeBase 0.153225 -0.000000 -0.000000
90
root 3.559894 32.699111 -12.267311 13.404516 0.164331 -0.818138
Spine -18.408626 -5.827570 0.619839
Head 17.819155 -4.079197 -0.950817
LeftShoulder -18.611448 38.959085 22.138748
LeftArm 58.066819 -54.740463 -61.801315
LeftForeArm 8.803126 -0.000000 3.049842
LeftHand 5.533986 -0.000000 12.090969
LeftHandThumb1 -26.253704 0.000000 33.147579
RightShoulder -6.385030 3.315789 -29.833092
RightArm 10.514025 15.321126 41.524464
RightForeArm -11.066982 -0.000000 6.599229
RightHand 4.461674 -0.000000 -5.887634
RightHandThumb1 -24.326973 -0.000000 -32.862282
LeftUpLeg -4.237561 -5.837147 1.111522
LeftLeg -5.797917 -0.000000 0.000000
LeftFoot -5.143140 8.461512 -17.134443
LeftToeBase -5.654916 -0.000000 0.000000
RightUpLeg -4.055729 -0.322429 1.115401
RightLeg -4.255576 -0.000000 0.000000
RightFoot -7.702144 -9.771986 11.014873
RightToeBase 0.098355 -0.000000 -0.000000
91
root 3.573741 32.703936 -12.260941 13.413799 0.148273 -0.841122
Spine -18.395515 -5.783760 0.668296
Head 17.848249 -4.020338 -1.018967
LeftShoulder -18.695352 39.234215 21.839976
LeftArm 58.473517 -54.562425 -62.813188
LeftForeArm 9.354538 -0.000000 3.957092
LeftHand 5.100082 -0.000000 13.873992
LeftHandThumb1 -26.253704 0.000000 33.147579
RightShoulder -6.365803 3.202056 -29.684983
RightArm 10.282363 15.568304 41.866737
RightForeArm -11.154812 -0.000000 7.190119
RightHand 4.945513 -0.000000 -6.574938
RightHandThumb1 -24.326973 -0.000000 -32.862282
LeftUpLeg -4.245719 -5.825030 1.105495
LeftLeg -5.787861 -0.000000 0.000000
LeftFoot -5.093891 8.493361 -17.087499
LeftToeBase -5.708771 -0.000000 0.000000
RightUpLeg -4.102858 -0.352913 1.106999
RightLeg -4.165793 -0.000000 0.000000
RightFoot -7.655688 -9.697462 11.050870
RightToeBase 0.025196 -0.000000 -0.000000
92
root 3.586641 32.710828 -12.257665 13.427527 0.121183 -0.874583
Spine -18.372725 -5.717322 0.726396
Head 17.864984 -3.979465 -1.109144
LeftShoulder -18.867375 39.626469 21.379472
LeftArm 59.256949 -54.522246 -64.191011
LeftForeArm 9.790010 0.000000 5.065449
LeftHand 5.540765 -0.000000 14.570685
LeftHandThumb1 -26.253704 0.000000 33.147579
RightShoulder -6.383377 3.020839 -29.539838
RightArm 10.069172 15.825779 42.280117
RightForeArm -11.271821 -0.000000 7.878729
RightHand 5.588429 -0.000000 -7.287325
RightHandThumb1 -24.326973 -0.000000 -32.862282
LeftUpLeg -4.259662 -5.807636 1.109399
LeftLeg -5.782231 -0.000000 0.000000
LeftFoot -5.017653 8.528677 -17.055389
LeftToeBase -5.762073 -0.000000 0.000000
RightUpLeg -4.163812 -0.353711 1.103405
RightLeg -4.073044 -0.000000 0.000000
RightFoot -7.583493 -9.619410 11.097077
RightToeBase -0.055610 -0.000000 0.000000
93
root 3.601053 32.718424 -12.255226 13.440120 0.080447 -0.906232
Spine -18.350426 -5.662259 0.784898
Head 17.883979 -3.925976 -1.183179
LeftShoulder -18.896961 39.776700 21.028297
LeftArm 59.250052 -54.277371 -64.859622
LeftForeArm 10.307021 -0.000000 6.256602
LeftHand 5.718517 -0.000000 15.606994
LeftHandThumb1 -26.253704 0.000000 33.147579
RightShoulder -6.354930 2.757322 -29.329549
RightArm 9.876345 16.157708 42.676149
RightForeArm -11.372193 -0.000000 8.638242
RightHand 6.275033 -0.000000 -7.840463
RightHandThumb1 -24.326973 -0.000000 -32.862282
LeftUpLeg -4.273307 -5.820591 1.109615
LeftLeg -5.780031 -0.000000 0.000000
LeftFoot -4.942151 8.621126 -16.992529
LeftToeBase -5.748900 -0.000000 0.000000
RightUpLeg -4.224112 -0.314967 1.091487
RightLeg -3.983984 -0.000000 0.000000
RightFoot -7.510956 -9.584326 11.156982
RightToeBase -0.162732 -0.000000 0.000000
94
root 3.615919 32.727415 -12.256279 13.469967 0.040131 -0.936002
Spine -18.327794 -5.596552 0.840964
Head 17.864015 -3.888108 -1.253479
LeftShoulder -19.104441 40.319039 20.399002
LeftArm 59.812043 -54.122247 -65.876285
LeftForeArm 10.949510 -0.000000 7.464101
LeftHand 5.980108 -0.000000 16.628109
LeftHandThumb1 -26.253704 0.000000 33.147579
RightShoulder -6.336786 2.544920 -29.116248
RightArm 9.593510 16.526747 43.117087
RightForeArm -11.611519 -0.000000 9.501644
RightHand 6.937886 -0.000000 -8.207891
RightHandThumb1 -24.326973 -0.000000 -32.862282
LeftUpLeg -4.321873 -5.803518 1.103200
LeftLeg -5.759034 -0.000000 0.000000
LeftFoot -4.847227 8.692663 -16.926785
LeftToeBase -5.858293 -0.000000 0.000000
RightUpLeg -4.329787 -0.327171 1.083674
RightLeg -3.853981 -0.000000 0.000000
RightFoot -7.441507 -9.501841 11.199949
RightToeBase -0.262378 -0.000000 0.000000
